<svg xmlns="http://www.w3.org/2000/svg" xmlns:xlink="http://www.w3.org/1999/xlink" width="144" zoomAndPan="magnify" viewBox="0 0 108 107.999999" height="144" preserveAspectRatio="xMidYMid meet" version="1.0"><defs><g/><clipPath id="63c3a8ced5"><path d="M 43.683594 47 L 54.972656 47 L 54.972656 67 L 43.683594 67 Z M 43.683594 47 " clip-rule="nonzero"/></clipPath><clipPath id="1ff04c8440"><path d="M 46.253906 47.441406 C 46.015625 48.632812 46.613281 49.863281 47.472656 50.726562 C 48.332031 51.585938 49.429688 52.15625 50.480469 52.769531 C 51.53125 53.382812 52.578125 54.082031 53.238281 55.105469 C 53.8125 55.996094 54.046875 57.058594 54.167969 58.113281 C 54.3125 59.386719 54.292969 60.726562 53.886719 61.925781 C 53.59375 61.203125 53.210938 60.507812 52.769531 59.863281 C 51.910156 58.589844 50.855469 57.464844 49.800781 56.347656 C 48.570312 55.042969 47.34375 53.738281 46.109375 52.433594 C 47.382812 54.820312 49.359375 56.742188 51.027344 58.875 C 52.695312 61.003906 54.117188 63.546875 53.960938 66.25 C 53.839844 64.867188 52.714844 63.769531 51.5 63.101562 C 50.285156 62.433594 48.917969 62.0625 47.71875 61.363281 C 45.449219 60.035156 43.925781 57.519531 43.804688 54.898438 C 43.6875 52.246094 44.898438 49.722656 46.253906 47.441406 Z M 46.253906 47.441406 " clip-rule="nonzero"/></clipPath><linearGradient x1="-1204.20996" gradientTransform="matrix(-0.0247662, 0, 0, 0.0247662, 19.200277, 45.929887)" y1="60.999777" x2="-1204.20996" gradientUnits="userSpaceOnUse" y2="820.499832" id="9977643613"><stop stop-opacity="1" stop-color="rgb(95.690918%, 96.859741%, 95.083618%)" offset="0"/><stop stop-opacity="1" stop-color="rgb(95.552063%, 96.759033%, 94.924927%)" offset="0.0625"/><stop stop-opacity="1" stop-color="rgb(95.274353%, 96.556091%, 94.60907%)" offset="0.125"/><stop stop-opacity="1" stop-color="rgb(94.998169%, 96.354675%, 94.293213%)" offset="0.1875"/><stop stop-opacity="1" stop-color="rgb(94.720459%, 96.153259%, 93.97583%)" offset="0.25"/><stop stop-opacity="1" stop-color="rgb(94.444275%, 95.951843%, 93.659973%)" offset="0.3125"/><stop stop-opacity="1" stop-color="rgb(94.166565%, 95.748901%, 93.344116%)" offset="0.375"/><stop stop-opacity="1" stop-color="rgb(93.890381%, 95.547485%, 93.028259%)" offset="0.4375"/><stop stop-opacity="1" stop-color="rgb(93.612671%, 95.346069%, 92.712402%)" offset="0.5"/><stop stop-opacity="1" stop-color="rgb(93.336487%, 95.144653%, 92.396545%)" offset="0.5625"/><stop stop-opacity="1" stop-color="rgb(93.058777%, 94.941711%, 92.080688%)" offset="0.625"/><stop stop-opacity="1" stop-color="rgb(92.782593%, 94.740295%, 91.764832%)" offset="0.6875"/><stop stop-opacity="1" stop-color="rgb(92.504883%, 94.538879%, 91.448975%)" offset="0.75"/><stop stop-opacity="1" stop-color="rgb(92.228699%, 94.337463%, 91.133118%)" offset="0.8125"/><stop stop-opacity="1" stop-color="rgb(91.950989%, 94.136047%, 90.817261%)" offset="0.875"/><stop stop-opacity="1" stop-color="rgb(91.674805%, 93.933105%, 90.501404%)" offset="0.9375"/><stop stop-opacity="1" stop-color="rgb(91.397095%, 93.731689%, 90.185547%)" offset="1"/></linearGradient><clipPath id="68115520b7"><path d="M 3.203125 3.203125 L 104.796875 3.203125 L 104.796875 104.796875 L 3.203125 104.796875 Z M 3.203125 3.203125 " clip-rule="nonzero"/></clipPath><clipPath id="75c0815674"><path d="M 54.164062 45.929688 L 66.863281 45.929688 L 66.863281 69 L 54.164062 69 Z M 54.164062 45.929688 " clip-rule="nonzero"/></clipPath><clipPath id="062e461c14"><path d="M 42.207031 15.375 L 66.902344 15.375 L 66.902344 40.070312 L 42.207031 40.070312 Z M 42.207031 15.375 " clip-rule="nonzero"/></clipPath></defs><g clip-path="url(#63c3a8ced5)"><g clip-path="url(#1ff04c8440)"><path fill="url(#9977643613)" d="M 54.3125 47.441406 L 54.3125 66.25 L 43.6875 66.25 L 43.6875 47.441406 Z M 54.3125 47.441406 " fill-rule="nonzero"/></g></g><path stroke-linecap="round" transform="matrix(-0.0100493, 0.705452, -0.705452, -0.0100493, 55.013923, 40.300649)" fill="none" stroke-linejoin="miter" d="M 0.500123 0.499889 L 49.200061 0.498302 " stroke="#ffffff" stroke-width="1" stroke-opacity="1" stroke-miterlimit="4"/><path stroke-linecap="round" transform="matrix(0.705496, 0.00624088, -0.00624088, 0.705496, 15.368516, 73.906215)" fill="none" stroke-linejoin="miter" d="M 1.427548 15.125273 C 37.23397 -3.723437 73.04116 -3.707978 108.849167 15.177188 " stroke="#ffffff" stroke-width="2" stroke-opacity="1" stroke-miterlimit="4"/><g clip-path="url(#68115520b7)"><path fill="#ffffff" d="M 54 104.796875 C 25.9375 104.796875 3.203125 81.90625 3.203125 54 C 3.203125 26.09375 25.9375 3.203125 54 3.203125 C 82.0625 3.203125 104.796875 25.9375 104.796875 54 C 104.796875 82.0625 81.90625 104.796875 54 104.796875 Z M 54 6.339844 C 27.660156 6.339844 6.339844 27.660156 6.339844 54 C 6.339844 80.339844 27.660156 101.660156 54 101.660156 C 80.339844 101.660156 101.660156 80.339844 101.660156 54 C 101.660156 27.660156 80.183594 6.339844 54 6.339844 Z M 54 6.339844 " fill-opacity="1" fill-rule="nonzero"/></g><g clip-path="url(#75c0815674)"><path fill="#ffffff" d="M 63.980469 45.929688 C 64.269531 47.386719 63.542969 48.890625 62.492188 49.9375 C 61.445312 50.988281 60.101562 51.6875 58.820312 52.4375 C 57.539062 53.183594 56.257812 54.039062 55.453125 55.289062 C 54.753906 56.375 54.464844 57.675781 54.320312 58.957031 C 54.136719 60.515625 54.160156 62.148438 54.65625 63.613281 C 55.015625 62.730469 55.484375 61.886719 56.019531 61.09375 C 57.070312 59.539062 58.359375 58.167969 59.644531 56.800781 C 61.148438 55.207031 62.648438 53.617188 64.152344 52.019531 C 62.597656 54.933594 60.1875 57.285156 58.148438 59.886719 C 56.113281 62.488281 54.375 65.59375 54.566406 68.890625 C 54.71875 67.203125 56.089844 65.863281 57.574219 65.046875 C 59.0625 64.234375 60.726562 63.777344 62.191406 62.925781 C 64.960938 61.3125 66.824219 58.238281 66.964844 55.035156 C 67.113281 51.796875 65.636719 48.714844 63.980469 45.929688 Z M 63.980469 45.929688 " fill-opacity="1" fill-rule="nonzero"/></g><g clip-path="url(#062e461c14)"><path fill="#ffffff" d="M 63.472656 19.023438 C 61.121094 16.671875 57.992188 15.375 54.664062 15.375 C 51.335938 15.375 48.207031 16.671875 45.855469 19.023438 C 43.503906 21.378906 42.207031 24.503906 42.207031 27.832031 C 42.207031 31.160156 43.503906 34.289062 45.855469 36.640625 C 48.207031 38.992188 51.335938 40.289062 54.664062 40.289062 C 57.992188 40.289062 61.121094 38.992188 63.472656 36.640625 C 65.824219 34.289062 67.121094 31.160156 67.121094 27.832031 C 67.121094 24.503906 65.824219 21.378906 63.472656 19.023438 Z M 46.421875 19.589844 C 48.621094 17.386719 51.550781 16.175781 54.664062 16.175781 C 57.777344 16.175781 60.707031 17.386719 62.90625 19.589844 C 65.109375 21.792969 66.320312 24.71875 66.320312 27.832031 C 66.320312 30.421875 65.484375 32.878906 63.933594 34.902344 C 62.703125 33.179688 60.738281 32.164062 58.601562 32.164062 L 50.726562 32.164062 C 48.589844 32.164062 46.625 33.179688 45.394531 34.902344 C 43.84375 32.878906 43.007812 30.421875 43.007812 27.832031 C 43.007812 24.71875 44.21875 21.792969 46.421875 19.589844 Z M 54.664062 31.503906 C 57.863281 31.503906 60.46875 28.902344 60.46875 25.703125 C 60.46875 22.5 57.863281 19.898438 54.664062 19.898438 C 51.464844 19.898438 48.859375 22.5 48.859375 25.703125 C 48.859375 28.902344 51.464844 31.503906 54.664062 31.503906 Z M 54.664062 31.503906 " fill-opacity="1" fill-rule="nonzero"/></g><g fill="#ffffff" fill-opacity="1"><g transform="translate(27.568422, 88.160875)"><g><path d="M 2.53125 0.0625 C 2.363281 0.0625 2.171875 0.0546875 1.953125 0.046875 C 1.742188 0.046875 1.53125 0.0390625 1.3125 0.03125 C 1.101562 0.03125 0.914062 0.0234375 0.75 0.015625 C 0.582031 0.00390625 0.457031 0 0.375 0 C 0.257812 -0.0078125 0.203125 -0.078125 0.203125 -0.203125 C 0.203125 -0.617188 0.207031 -1.046875 0.21875 -1.484375 C 0.226562 -1.929688 0.238281 -2.363281 0.25 -2.78125 C 0.257812 -3.207031 0.269531 -3.609375 0.28125 -3.984375 C 0.300781 -4.359375 0.320312 -4.679688 0.34375 -4.953125 C 0.351562 -5.078125 0.410156 -5.144531 0.515625 -5.15625 C 0.691406 -5.164062 0.878906 -5.175781 1.078125 -5.1875 C 1.285156 -5.195312 1.492188 -5.203125 1.703125 -5.203125 C 1.910156 -5.203125 2.097656 -5.203125 2.265625 -5.203125 C 3.003906 -5.203125 3.566406 -5.113281 3.953125 -4.9375 C 4.347656 -4.769531 4.546875 -4.5 4.546875 -4.125 C 4.546875 -3.851562 4.429688 -3.601562 4.203125 -3.375 C 3.984375 -3.144531 3.675781 -2.984375 3.28125 -2.890625 C 3.195312 -2.867188 3.15625 -2.835938 3.15625 -2.796875 C 3.15625 -2.753906 3.191406 -2.71875 3.265625 -2.6875 C 3.785156 -2.582031 4.175781 -2.40625 4.4375 -2.15625 C 4.695312 -1.90625 4.828125 -1.625 4.828125 -1.3125 C 4.828125 -1 4.71875 -0.738281 4.5 -0.53125 C 4.289062 -0.332031 4.007812 -0.179688 3.65625 -0.078125 C 3.3125 0.015625 2.9375 0.0625 2.53125 0.0625 Z M 1.703125 -3.171875 C 2.304688 -3.222656 2.742188 -3.304688 3.015625 -3.421875 C 3.296875 -3.546875 3.4375 -3.703125 3.4375 -3.890625 C 3.4375 -4.046875 3.351562 -4.164062 3.1875 -4.25 C 3.03125 -4.34375 2.773438 -4.390625 2.421875 -4.390625 C 2.304688 -4.390625 2.175781 -4.382812 2.03125 -4.375 C 1.882812 -4.375 1.765625 -4.367188 1.671875 -4.359375 C 1.484375 -4.359375 1.378906 -4.273438 1.359375 -4.109375 C 1.347656 -3.992188 1.34375 -3.875 1.34375 -3.75 C 1.351562 -3.625 1.359375 -3.503906 1.359375 -3.390625 C 1.378906 -3.210938 1.492188 -3.140625 1.703125 -3.171875 Z M 1.75 -0.859375 C 1.84375 -0.859375 1.972656 -0.851562 2.140625 -0.84375 C 2.304688 -0.84375 2.441406 -0.84375 2.546875 -0.84375 C 2.878906 -0.84375 3.144531 -0.90625 3.34375 -1.03125 C 3.550781 -1.15625 3.65625 -1.316406 3.65625 -1.515625 C 3.65625 -1.773438 3.488281 -1.96875 3.15625 -2.09375 C 2.820312 -2.21875 2.34375 -2.3125 1.71875 -2.375 C 1.59375 -2.394531 1.503906 -2.378906 1.453125 -2.328125 C 1.398438 -2.273438 1.367188 -2.195312 1.359375 -2.09375 C 1.335938 -1.800781 1.335938 -1.503906 1.359375 -1.203125 C 1.367188 -1.085938 1.40625 -1.003906 1.46875 -0.953125 C 1.539062 -0.898438 1.632812 -0.867188 1.75 -0.859375 Z M 1.75 -0.859375 "/></g></g></g><g fill="#ffffff" fill-opacity="1"><g transform="translate(32.532888, 88.160875)"><g><path d="M 1.8125 0.0625 C 1.25 0.0625 0.835938 -0.113281 0.578125 -0.46875 C 0.316406 -0.820312 0.1875 -1.300781 0.1875 -1.90625 C 0.1875 -2.1875 0.195312 -2.472656 0.21875 -2.765625 C 0.238281 -3.054688 0.265625 -3.398438 0.296875 -3.796875 C 0.296875 -3.910156 0.351562 -3.984375 0.46875 -4.015625 C 0.53125 -4.023438 0.597656 -4.03125 0.671875 -4.03125 C 0.742188 -4.039062 0.796875 -4.046875 0.828125 -4.046875 C 0.878906 -4.046875 0.953125 -4.039062 1.046875 -4.03125 C 1.140625 -4.03125 1.222656 -4.023438 1.296875 -4.015625 C 1.347656 -4.003906 1.390625 -3.976562 1.421875 -3.9375 C 1.453125 -3.90625 1.460938 -3.863281 1.453125 -3.8125 C 1.429688 -3.632812 1.40625 -3.441406 1.375 -3.234375 C 1.351562 -3.035156 1.332031 -2.835938 1.3125 -2.640625 C 1.289062 -2.441406 1.28125 -2.273438 1.28125 -2.140625 C 1.28125 -1.742188 1.359375 -1.429688 1.515625 -1.203125 C 1.671875 -0.984375 1.914062 -0.875 2.25 -0.875 C 2.519531 -0.875 2.734375 -0.992188 2.890625 -1.234375 C 3.054688 -1.472656 3.140625 -1.789062 3.140625 -2.1875 C 3.140625 -2.40625 3.125 -2.660156 3.09375 -2.953125 C 3.070312 -3.242188 3.039062 -3.523438 3 -3.796875 C 2.988281 -3.859375 3 -3.90625 3.03125 -3.9375 C 3.0625 -3.976562 3.101562 -4.003906 3.15625 -4.015625 C 3.207031 -4.023438 3.273438 -4.03125 3.359375 -4.03125 C 3.453125 -4.039062 3.523438 -4.046875 3.578125 -4.046875 C 3.648438 -4.046875 3.722656 -4.039062 3.796875 -4.03125 C 3.867188 -4.03125 3.9375 -4.023438 4 -4.015625 C 4.101562 -3.992188 4.164062 -3.921875 4.1875 -3.796875 C 4.207031 -3.367188 4.222656 -2.992188 4.234375 -2.671875 C 4.253906 -2.347656 4.269531 -2.050781 4.28125 -1.78125 C 4.289062 -1.519531 4.289062 -1.265625 4.28125 -1.015625 C 4.28125 -0.765625 4.28125 -0.488281 4.28125 -0.1875 C 4.28125 -0.0820312 4.234375 -0.0195312 4.140625 0 C 4.085938 0.0078125 4.023438 0.015625 3.953125 0.015625 C 3.890625 0.0234375 3.828125 0.03125 3.765625 0.03125 C 3.703125 0.03125 3.632812 0.0234375 3.5625 0.015625 C 3.488281 0.015625 3.414062 0.0078125 3.34375 0 C 3.300781 0 3.257812 -0.0195312 3.21875 -0.0625 C 3.1875 -0.101562 3.175781 -0.148438 3.1875 -0.203125 C 3.195312 -0.265625 3.203125 -0.328125 3.203125 -0.390625 C 3.210938 -0.460938 3.21875 -0.519531 3.21875 -0.5625 C 3.21875 -0.644531 3.203125 -0.6875 3.171875 -0.6875 C 3.140625 -0.695312 3.101562 -0.671875 3.0625 -0.609375 C 2.90625 -0.367188 2.722656 -0.195312 2.515625 -0.09375 C 2.316406 0.0078125 2.082031 0.0625 1.8125 0.0625 Z M 1.8125 0.0625 "/></g></g></g><g fill="#ffffff" fill-opacity="1"><g transform="translate(37.003852, 88.160875)"><g><path d="M 1.75 0.0625 C 1.4375 0.0625 1.15625 -0.015625 0.90625 -0.171875 C 0.664062 -0.328125 0.472656 -0.554688 0.328125 -0.859375 C 0.191406 -1.160156 0.125 -1.535156 0.125 -1.984375 C 0.125 -2.421875 0.191406 -2.789062 0.328125 -3.09375 C 0.472656 -3.40625 0.664062 -3.644531 0.90625 -3.8125 C 1.15625 -3.976562 1.4375 -4.0625 1.75 -4.0625 C 2.007812 -4.0625 2.242188 -4.003906 2.453125 -3.890625 C 2.671875 -3.785156 2.847656 -3.625 2.984375 -3.40625 C 3.023438 -3.34375 3.0625 -3.316406 3.09375 -3.328125 C 3.125 -3.335938 3.140625 -3.378906 3.140625 -3.453125 C 3.128906 -3.753906 3.101562 -4.046875 3.0625 -4.328125 C 3.03125 -4.617188 2.992188 -4.875 2.953125 -5.09375 C 2.941406 -5.144531 2.953125 -5.1875 2.984375 -5.21875 C 3.023438 -5.257812 3.066406 -5.285156 3.109375 -5.296875 C 3.160156 -5.304688 3.222656 -5.3125 3.296875 -5.3125 C 3.378906 -5.320312 3.460938 -5.328125 3.546875 -5.328125 C 3.628906 -5.328125 3.707031 -5.328125 3.78125 -5.328125 C 3.863281 -5.328125 3.929688 -5.316406 3.984375 -5.296875 C 4.085938 -5.273438 4.144531 -5.210938 4.15625 -5.109375 C 4.175781 -4.859375 4.191406 -4.546875 4.203125 -4.171875 C 4.222656 -3.796875 4.238281 -3.382812 4.25 -2.9375 C 4.257812 -2.5 4.265625 -2.046875 4.265625 -1.578125 C 4.273438 -1.117188 4.28125 -0.660156 4.28125 -0.203125 C 4.28125 -0.0859375 4.222656 -0.0195312 4.109375 0 C 4.054688 0.0078125 3.984375 0.015625 3.890625 0.015625 C 3.804688 0.0234375 3.742188 0.03125 3.703125 0.03125 C 3.640625 0.03125 3.566406 0.0234375 3.484375 0.015625 C 3.398438 0.015625 3.332031 0.0078125 3.28125 0 C 3.226562 0 3.179688 -0.0195312 3.140625 -0.0625 C 3.109375 -0.101562 3.097656 -0.148438 3.109375 -0.203125 C 3.117188 -0.253906 3.125 -0.300781 3.125 -0.34375 C 3.132812 -0.394531 3.144531 -0.453125 3.15625 -0.515625 C 3.164062 -0.597656 3.148438 -0.644531 3.109375 -0.65625 C 3.078125 -0.664062 3.039062 -0.632812 3 -0.5625 C 2.863281 -0.363281 2.6875 -0.207031 2.46875 -0.09375 C 2.25 0.0078125 2.007812 0.0625 1.75 0.0625 Z M 2.171875 -0.828125 C 2.441406 -0.828125 2.671875 -0.929688 2.859375 -1.140625 C 3.054688 -1.359375 3.15625 -1.65625 3.15625 -2.03125 C 3.15625 -2.394531 3.0625 -2.675781 2.875 -2.875 C 2.6875 -3.070312 2.453125 -3.171875 2.171875 -3.171875 C 1.878906 -3.171875 1.640625 -3.066406 1.453125 -2.859375 C 1.273438 -2.660156 1.1875 -2.378906 1.1875 -2.015625 C 1.1875 -1.640625 1.28125 -1.347656 1.46875 -1.140625 C 1.65625 -0.929688 1.890625 -0.828125 2.171875 -0.828125 Z M 2.171875 -0.828125 "/></g></g></g><g fill="#ffffff" fill-opacity="1"><g transform="translate(41.489548, 88.160875)"><g><path d="M 2.125 1.75 C 1.9375 1.75 1.734375 1.742188 1.515625 1.734375 C 1.304688 1.722656 1.097656 1.703125 0.890625 1.671875 C 0.691406 1.648438 0.515625 1.613281 0.359375 1.5625 C 0.234375 1.507812 0.175781 1.421875 0.1875 1.296875 L 0.25 0.5 C 0.257812 0.414062 0.296875 0.363281 0.359375 0.34375 C 0.429688 0.320312 0.488281 0.335938 0.53125 0.390625 C 0.707031 0.515625 0.914062 0.609375 1.15625 0.671875 C 1.394531 0.734375 1.628906 0.765625 1.859375 0.765625 C 2.117188 0.765625 2.347656 0.71875 2.546875 0.625 C 2.753906 0.53125 2.921875 0.394531 3.046875 0.21875 C 3.171875 0.0507812 3.234375 -0.144531 3.234375 -0.375 L 3.234375 -0.5 C 3.234375 -0.59375 3.207031 -0.640625 3.15625 -0.640625 C 3.101562 -0.648438 3.054688 -0.617188 3.015625 -0.546875 C 2.878906 -0.335938 2.703125 -0.179688 2.484375 -0.078125 C 2.265625 0.015625 2.023438 0.0625 1.765625 0.0625 C 1.453125 0.0625 1.175781 -0.015625 0.9375 -0.171875 C 0.695312 -0.328125 0.507812 -0.554688 0.375 -0.859375 C 0.238281 -1.171875 0.171875 -1.550781 0.171875 -2 C 0.171875 -2.4375 0.238281 -2.804688 0.375 -3.109375 C 0.507812 -3.410156 0.695312 -3.644531 0.9375 -3.8125 C 1.175781 -3.976562 1.453125 -4.0625 1.765625 -4.0625 C 2.023438 -4.0625 2.265625 -4 2.484375 -3.875 C 2.703125 -3.757812 2.882812 -3.59375 3.03125 -3.375 C 3.0625 -3.320312 3.09375 -3.296875 3.125 -3.296875 C 3.15625 -3.304688 3.171875 -3.347656 3.171875 -3.421875 C 3.171875 -3.484375 3.164062 -3.546875 3.15625 -3.609375 C 3.144531 -3.679688 3.132812 -3.75 3.125 -3.8125 C 3.113281 -3.863281 3.125 -3.90625 3.15625 -3.9375 C 3.1875 -3.96875 3.226562 -3.988281 3.28125 -4 C 3.320312 -4.007812 3.378906 -4.015625 3.453125 -4.015625 C 3.535156 -4.023438 3.613281 -4.03125 3.6875 -4.03125 C 3.757812 -4.03125 3.828125 -4.023438 3.890625 -4.015625 C 3.953125 -4.015625 4.007812 -4.007812 4.0625 -4 C 4.15625 -3.976562 4.207031 -3.914062 4.21875 -3.8125 C 4.269531 -3.382812 4.300781 -2.867188 4.3125 -2.265625 C 4.320312 -1.671875 4.328125 -1.015625 4.328125 -0.296875 C 4.328125 0.203125 4.234375 0.601562 4.046875 0.90625 C 3.859375 1.207031 3.597656 1.421875 3.265625 1.546875 C 2.929688 1.679688 2.550781 1.75 2.125 1.75 Z M 2.203125 -0.796875 C 2.484375 -0.796875 2.71875 -0.898438 2.90625 -1.109375 C 3.09375 -1.328125 3.1875 -1.628906 3.1875 -2.015625 C 3.1875 -2.367188 3.09375 -2.648438 2.90625 -2.859375 C 2.726562 -3.066406 2.492188 -3.171875 2.203125 -3.171875 C 1.921875 -3.171875 1.6875 -3.066406 1.5 -2.859375 C 1.3125 -2.648438 1.21875 -2.367188 1.21875 -2.015625 C 1.21875 -1.628906 1.3125 -1.328125 1.5 -1.109375 C 1.6875 -0.898438 1.921875 -0.796875 2.203125 -0.796875 Z M 2.203125 -0.796875 "/></g></g></g><g fill="#ffffff" fill-opacity="1"><g transform="translate(45.997342, 88.160875)"><g><path d="M 2.28125 0.0625 C 1.84375 0.0625 1.460938 -0.0195312 1.140625 -0.1875 C 0.816406 -0.351562 0.566406 -0.59375 0.390625 -0.90625 C 0.210938 -1.21875 0.125 -1.597656 0.125 -2.046875 C 0.125 -2.472656 0.207031 -2.835938 0.375 -3.140625 C 0.550781 -3.441406 0.785156 -3.671875 1.078125 -3.828125 C 1.367188 -3.984375 1.703125 -4.0625 2.078125 -4.0625 C 2.597656 -4.0625 3.019531 -3.941406 3.34375 -3.703125 C 3.664062 -3.472656 3.828125 -3.132812 3.828125 -2.6875 C 3.828125 -2.445312 3.757812 -2.234375 3.625 -2.046875 C 3.5 -1.867188 3.328125 -1.726562 3.109375 -1.625 C 2.898438 -1.519531 2.671875 -1.46875 2.421875 -1.46875 C 2.222656 -1.46875 2.03125 -1.484375 1.84375 -1.515625 C 1.65625 -1.554688 1.488281 -1.613281 1.34375 -1.6875 C 1.269531 -1.738281 1.21875 -1.742188 1.1875 -1.703125 C 1.15625 -1.660156 1.160156 -1.601562 1.203125 -1.53125 C 1.265625 -1.394531 1.359375 -1.273438 1.484375 -1.171875 C 1.617188 -1.066406 1.769531 -0.984375 1.9375 -0.921875 C 2.101562 -0.859375 2.269531 -0.828125 2.4375 -0.828125 C 2.625 -0.828125 2.828125 -0.867188 3.046875 -0.953125 C 3.265625 -1.035156 3.441406 -1.140625 3.578125 -1.265625 C 3.628906 -1.335938 3.6875 -1.359375 3.75 -1.328125 C 3.8125 -1.304688 3.84375 -1.25 3.84375 -1.15625 C 3.851562 -1.050781 3.859375 -0.941406 3.859375 -0.828125 C 3.867188 -0.710938 3.875 -0.601562 3.875 -0.5 C 3.875 -0.40625 3.84375 -0.335938 3.78125 -0.296875 C 3.601562 -0.171875 3.367188 -0.078125 3.078125 -0.015625 C 2.796875 0.0351562 2.53125 0.0625 2.28125 0.0625 Z M 2.140625 -2.03125 C 2.347656 -2.03125 2.515625 -2.082031 2.640625 -2.1875 C 2.765625 -2.300781 2.828125 -2.445312 2.828125 -2.625 C 2.828125 -2.820312 2.769531 -2.972656 2.65625 -3.078125 C 2.539062 -3.179688 2.351562 -3.234375 2.09375 -3.234375 C 1.945312 -3.234375 1.800781 -3.203125 1.65625 -3.140625 C 1.519531 -3.078125 1.40625 -2.988281 1.3125 -2.875 C 1.21875 -2.769531 1.171875 -2.632812 1.171875 -2.46875 C 1.171875 -2.375 1.222656 -2.289062 1.328125 -2.21875 C 1.441406 -2.15625 1.570312 -2.109375 1.71875 -2.078125 C 1.875 -2.046875 2.015625 -2.03125 2.140625 -2.03125 Z M 2.140625 -2.03125 "/></g></g></g><g fill="#ffffff" fill-opacity="1"><g transform="translate(50.019001, 88.160875)"><g><path d="M 2.25 0.0625 C 2 0.0625 1.769531 0.015625 1.5625 -0.078125 C 1.363281 -0.179688 1.203125 -0.332031 1.078125 -0.53125 C 0.953125 -0.726562 0.890625 -0.972656 0.890625 -1.265625 C 0.890625 -1.429688 0.890625 -1.617188 0.890625 -1.828125 C 0.898438 -2.046875 0.910156 -2.265625 0.921875 -2.484375 C 0.929688 -2.710938 0.945312 -2.929688 0.96875 -3.140625 C 0.96875 -3.171875 0.953125 -3.195312 0.921875 -3.21875 C 0.898438 -3.25 0.867188 -3.265625 0.828125 -3.265625 C 0.742188 -3.265625 0.65625 -3.265625 0.5625 -3.265625 C 0.46875 -3.265625 0.375 -3.265625 0.28125 -3.265625 C 0.226562 -3.253906 0.179688 -3.269531 0.140625 -3.3125 C 0.109375 -3.351562 0.09375 -3.398438 0.09375 -3.453125 L 0.09375 -3.8125 C 0.09375 -3.863281 0.109375 -3.90625 0.140625 -3.9375 C 0.179688 -3.976562 0.226562 -4 0.28125 -4 L 0.828125 -4 C 0.921875 -4 0.96875 -4.046875 0.96875 -4.140625 C 0.96875 -4.234375 0.96875 -4.328125 0.96875 -4.421875 C 0.976562 -4.523438 0.988281 -4.625 1 -4.71875 C 1.007812 -4.84375 1.066406 -4.914062 1.171875 -4.9375 C 1.234375 -4.945312 1.296875 -4.953125 1.359375 -4.953125 C 1.421875 -4.953125 1.484375 -4.953125 1.546875 -4.953125 C 1.609375 -4.953125 1.664062 -4.953125 1.71875 -4.953125 C 1.78125 -4.953125 1.84375 -4.945312 1.90625 -4.9375 C 1.957031 -4.925781 2.003906 -4.898438 2.046875 -4.859375 C 2.085938 -4.828125 2.101562 -4.78125 2.09375 -4.71875 C 2.082031 -4.625 2.070312 -4.53125 2.0625 -4.4375 C 2.050781 -4.351562 2.046875 -4.257812 2.046875 -4.15625 C 2.046875 -4.050781 2.085938 -4 2.171875 -4 C 2.328125 -4 2.507812 -4 2.71875 -4 C 2.925781 -4.007812 3.101562 -4.015625 3.25 -4.015625 C 3.300781 -4.015625 3.347656 -3.992188 3.390625 -3.953125 C 3.429688 -3.921875 3.453125 -3.875 3.453125 -3.8125 L 3.453125 -3.421875 C 3.453125 -3.367188 3.429688 -3.320312 3.390625 -3.28125 C 3.347656 -3.238281 3.300781 -3.21875 3.25 -3.21875 C 3.1875 -3.226562 3.09375 -3.234375 2.96875 -3.234375 C 2.84375 -3.242188 2.710938 -3.25 2.578125 -3.25 C 2.453125 -3.257812 2.351562 -3.265625 2.28125 -3.265625 C 2.113281 -3.265625 2.015625 -3.171875 1.984375 -2.984375 C 1.960938 -2.734375 1.953125 -2.460938 1.953125 -2.171875 C 1.953125 -1.878906 1.957031 -1.625 1.96875 -1.40625 C 1.976562 -1.21875 2.03125 -1.082031 2.125 -1 C 2.226562 -0.925781 2.347656 -0.890625 2.484375 -0.890625 C 2.546875 -0.890625 2.628906 -0.898438 2.734375 -0.921875 C 2.835938 -0.941406 2.9375 -0.96875 3.03125 -1 C 3.132812 -1.03125 3.207031 -1.0625 3.25 -1.09375 C 3.3125 -1.15625 3.375 -1.171875 3.4375 -1.140625 C 3.507812 -1.109375 3.546875 -1.039062 3.546875 -0.9375 C 3.546875 -0.820312 3.546875 -0.71875 3.546875 -0.625 C 3.546875 -0.539062 3.546875 -0.453125 3.546875 -0.359375 C 3.535156 -0.242188 3.488281 -0.164062 3.40625 -0.125 C 3.320312 -0.0820312 3.207031 -0.046875 3.0625 -0.015625 C 2.914062 0.00390625 2.769531 0.0195312 2.625 0.03125 C 2.476562 0.0507812 2.351562 0.0625 2.25 0.0625 Z M 2.25 0.0625 "/></g></g></g><g fill="#ffffff" fill-opacity="1"><g transform="translate(53.657644, 88.160875)"><g><path d="M 2.71875 0.046875 C 2.21875 0.046875 1.773438 -0.0351562 1.390625 -0.203125 C 1.003906 -0.367188 0.695312 -0.628906 0.46875 -0.984375 C 0.25 -1.335938 0.140625 -1.804688 0.140625 -2.390625 C 0.140625 -2.960938 0.25 -3.457031 0.46875 -3.875 C 0.6875 -4.300781 0.984375 -4.628906 1.359375 -4.859375 C 1.742188 -5.085938 2.179688 -5.203125 2.671875 -5.203125 C 2.972656 -5.203125 3.269531 -5.164062 3.5625 -5.09375 C 3.863281 -5.019531 4.117188 -4.929688 4.328125 -4.828125 C 4.398438 -4.773438 4.4375 -4.691406 4.4375 -4.578125 C 4.4375 -4.546875 4.429688 -4.476562 4.421875 -4.375 C 4.410156 -4.28125 4.398438 -4.171875 4.390625 -4.046875 C 4.390625 -3.921875 4.382812 -3.804688 4.375 -3.703125 C 4.363281 -3.597656 4.359375 -3.53125 4.359375 -3.5 C 4.347656 -3.414062 4.304688 -3.367188 4.234375 -3.359375 C 4.171875 -3.347656 4.117188 -3.382812 4.078125 -3.46875 C 3.941406 -3.707031 3.765625 -3.898438 3.546875 -4.046875 C 3.328125 -4.203125 3.03125 -4.28125 2.65625 -4.28125 C 2.40625 -4.28125 2.175781 -4.207031 1.96875 -4.0625 C 1.757812 -3.914062 1.59375 -3.707031 1.46875 -3.4375 C 1.34375 -3.164062 1.28125 -2.828125 1.28125 -2.421875 C 1.28125 -2.054688 1.34375 -1.757812 1.46875 -1.53125 C 1.601562 -1.300781 1.78125 -1.132812 2 -1.03125 C 2.21875 -0.9375 2.457031 -0.890625 2.71875 -0.890625 C 3.070312 -0.890625 3.382812 -0.960938 3.65625 -1.109375 C 3.9375 -1.253906 4.148438 -1.46875 4.296875 -1.75 C 4.328125 -1.84375 4.382812 -1.878906 4.46875 -1.859375 C 4.550781 -1.847656 4.59375 -1.789062 4.59375 -1.6875 C 4.601562 -1.488281 4.613281 -1.289062 4.625 -1.09375 C 4.632812 -0.894531 4.644531 -0.695312 4.65625 -0.5 C 4.65625 -0.4375 4.640625 -0.382812 4.609375 -0.34375 C 4.585938 -0.300781 4.554688 -0.269531 4.515625 -0.25 C 4.378906 -0.1875 4.203125 -0.128906 3.984375 -0.078125 C 3.765625 -0.0351562 3.539062 -0.00390625 3.3125 0.015625 C 3.082031 0.0351562 2.882812 0.046875 2.71875 0.046875 Z M 2.71875 0.046875 "/></g></g></g><g fill="#ffffff" fill-opacity="1"><g transform="translate(58.48216, 88.160875)"><g><path d="M 2.1875 0.0625 C 1.800781 0.0625 1.453125 -0.0078125 1.140625 -0.15625 C 0.828125 -0.3125 0.578125 -0.539062 0.390625 -0.84375 C 0.210938 -1.144531 0.125 -1.519531 0.125 -1.96875 C 0.125 -2.414062 0.210938 -2.789062 0.390625 -3.09375 C 0.566406 -3.40625 0.8125 -3.644531 1.125 -3.8125 C 1.4375 -3.976562 1.789062 -4.0625 2.1875 -4.0625 C 2.59375 -4.0625 2.945312 -3.976562 3.25 -3.8125 C 3.550781 -3.644531 3.789062 -3.40625 3.96875 -3.09375 C 4.144531 -2.789062 4.234375 -2.414062 4.234375 -1.96875 C 4.234375 -1.519531 4.144531 -1.144531 3.96875 -0.84375 C 3.789062 -0.539062 3.546875 -0.3125 3.234375 -0.15625 C 2.929688 -0.0078125 2.582031 0.0625 2.1875 0.0625 Z M 2.1875 -0.8125 C 2.476562 -0.8125 2.71875 -0.910156 2.90625 -1.109375 C 3.09375 -1.316406 3.1875 -1.617188 3.1875 -2.015625 C 3.1875 -2.378906 3.09375 -2.664062 2.90625 -2.875 C 2.726562 -3.082031 2.488281 -3.1875 2.1875 -3.1875 C 1.894531 -3.1875 1.65625 -3.082031 1.46875 -2.875 C 1.28125 -2.664062 1.1875 -2.378906 1.1875 -2.015625 C 1.1875 -1.617188 1.28125 -1.316406 1.46875 -1.109375 C 1.664062 -0.910156 1.90625 -0.8125 2.1875 -0.8125 Z M 2.1875 -0.8125 "/></g></g></g><g fill="#ffffff" fill-opacity="1"><g transform="translate(62.857371, 88.160875)"><g><path d="M 0.765625 0.03125 C 0.703125 0.03125 0.628906 0.0234375 0.546875 0.015625 C 0.472656 0.015625 0.410156 0.0078125 0.359375 0 C 0.304688 -0.0078125 0.265625 -0.03125 0.234375 -0.0625 C 0.203125 -0.101562 0.1875 -0.15625 0.1875 -0.21875 C 0.1875 -0.664062 0.1875 -1.050781 0.1875 -1.375 C 0.195312 -1.707031 0.207031 -2.003906 0.21875 -2.265625 C 0.226562 -2.523438 0.238281 -2.78125 0.25 -3.03125 C 0.257812 -3.28125 0.28125 -3.539062 0.3125 -3.8125 C 0.332031 -3.925781 0.390625 -3.988281 0.484375 -4 C 0.535156 -4.007812 0.59375 -4.015625 0.65625 -4.015625 C 0.71875 -4.023438 0.78125 -4.03125 0.84375 -4.03125 C 0.914062 -4.03125 0.984375 -4.023438 1.046875 -4.015625 C 1.117188 -4.015625 1.191406 -4.007812 1.265625 -4 C 1.304688 -4 1.34375 -3.976562 1.375 -3.9375 C 1.40625 -3.90625 1.414062 -3.863281 1.40625 -3.8125 C 1.382812 -3.738281 1.367188 -3.671875 1.359375 -3.609375 C 1.347656 -3.546875 1.335938 -3.488281 1.328125 -3.4375 C 1.328125 -3.351562 1.34375 -3.304688 1.375 -3.296875 C 1.40625 -3.296875 1.441406 -3.332031 1.484375 -3.40625 C 1.660156 -3.632812 1.847656 -3.800781 2.046875 -3.90625 C 2.242188 -4.007812 2.46875 -4.0625 2.71875 -4.0625 C 3.019531 -4.0625 3.285156 -3.984375 3.515625 -3.828125 C 3.753906 -3.671875 3.941406 -3.445312 4.078125 -3.15625 C 4.222656 -2.863281 4.300781 -2.515625 4.3125 -2.109375 C 4.320312 -1.921875 4.328125 -1.734375 4.328125 -1.546875 C 4.335938 -1.367188 4.34375 -1.171875 4.34375 -0.953125 C 4.351562 -0.742188 4.359375 -0.5 4.359375 -0.21875 C 4.359375 -0.15625 4.34375 -0.101562 4.3125 -0.0625 C 4.28125 -0.03125 4.238281 -0.0078125 4.1875 0 C 4.125 0.0078125 4.050781 0.015625 3.96875 0.015625 C 3.894531 0.0234375 3.84375 0.03125 3.8125 0.03125 C 3.757812 0.03125 3.6875 0.0234375 3.59375 0.015625 C 3.507812 0.015625 3.429688 0.0078125 3.359375 0 C 3.316406 -0.0078125 3.273438 -0.03125 3.234375 -0.0625 C 3.191406 -0.101562 3.175781 -0.148438 3.1875 -0.203125 C 3.207031 -0.378906 3.222656 -0.566406 3.234375 -0.765625 C 3.242188 -0.972656 3.25 -1.171875 3.25 -1.359375 C 3.257812 -1.554688 3.257812 -1.71875 3.25 -1.84375 C 3.25 -2.226562 3.160156 -2.535156 2.984375 -2.765625 C 2.804688 -3.003906 2.566406 -3.125 2.265625 -3.125 C 1.984375 -3.125 1.75 -3.003906 1.5625 -2.765625 C 1.375 -2.535156 1.28125 -2.222656 1.28125 -1.828125 C 1.289062 -1.617188 1.300781 -1.363281 1.3125 -1.0625 C 1.320312 -0.769531 1.34375 -0.484375 1.375 -0.203125 C 1.382812 -0.148438 1.367188 -0.101562 1.328125 -0.0625 C 1.296875 -0.03125 1.253906 -0.0078125 1.203125 0 C 1.148438 0.0078125 1.078125 0.015625 0.984375 0.015625 C 0.898438 0.0234375 0.828125 0.03125 0.765625 0.03125 Z M 0.765625 0.03125 "/></g></g></g><g fill="#ffffff" fill-opacity="1"><g transform="translate(67.394627, 88.160875)"><g><path d="M 2.25 0.0625 C 2 0.0625 1.769531 0.015625 1.5625 -0.078125 C 1.363281 -0.179688 1.203125 -0.332031 1.078125 -0.53125 C 0.953125 -0.726562 0.890625 -0.972656 0.890625 -1.265625 C 0.890625 -1.429688 0.890625 -1.617188 0.890625 -1.828125 C 0.898438 -2.046875 0.910156 -2.265625 0.921875 -2.484375 C 0.929688 -2.710938 0.945312 -2.929688 0.96875 -3.140625 C 0.96875 -3.171875 0.953125 -3.195312 0.921875 -3.21875 C 0.898438 -3.25 0.867188 -3.265625 0.828125 -3.265625 C 0.742188 -3.265625 0.65625 -3.265625 0.5625 -3.265625 C 0.46875 -3.265625 0.375 -3.265625 0.28125 -3.265625 C 0.226562 -3.253906 0.179688 -3.269531 0.140625 -3.3125 C 0.109375 -3.351562 0.09375 -3.398438 0.09375 -3.453125 L 0.09375 -3.8125 C 0.09375 -3.863281 0.109375 -3.90625 0.140625 -3.9375 C 0.179688 -3.976562 0.226562 -4 0.28125 -4 L 0.828125 -4 C 0.921875 -4 0.96875 -4.046875 0.96875 -4.140625 C 0.96875 -4.234375 0.96875 -4.328125 0.96875 -4.421875 C 0.976562 -4.523438 0.988281 -4.625 1 -4.71875 C 1.007812 -4.84375 1.066406 -4.914062 1.171875 -4.9375 C 1.234375 -4.945312 1.296875 -4.953125 1.359375 -4.953125 C 1.421875 -4.953125 1.484375 -4.953125 1.546875 -4.953125 C 1.609375 -4.953125 1.664062 -4.953125 1.71875 -4.953125 C 1.78125 -4.953125 1.84375 -4.945312 1.90625 -4.9375 C 1.957031 -4.925781 2.003906 -4.898438 2.046875 -4.859375 C 2.085938 -4.828125 2.101562 -4.78125 2.09375 -4.71875 C 2.082031 -4.625 2.070312 -4.53125 2.0625 -4.4375 C 2.050781 -4.351562 2.046875 -4.257812 2.046875 -4.15625 C 2.046875 -4.050781 2.085938 -4 2.171875 -4 C 2.328125 -4 2.507812 -4 2.71875 -4 C 2.925781 -4.007812 3.101562 -4.015625 3.25 -4.015625 C 3.300781 -4.015625 3.347656 -3.992188 3.390625 -3.953125 C 3.429688 -3.921875 3.453125 -3.875 3.453125 -3.8125 L 3.453125 -3.421875 C 3.453125 -3.367188 3.429688 -3.320312 3.390625 -3.28125 C 3.347656 -3.238281 3.300781 -3.21875 3.25 -3.21875 C 3.1875 -3.226562 3.09375 -3.234375 2.96875 -3.234375 C 2.84375 -3.242188 2.710938 -3.25 2.578125 -3.25 C 2.453125 -3.257812 2.351562 -3.265625 2.28125 -3.265625 C 2.113281 -3.265625 2.015625 -3.171875 1.984375 -2.984375 C 1.960938 -2.734375 1.953125 -2.460938 1.953125 -2.171875 C 1.953125 -1.878906 1.957031 -1.625 1.96875 -1.40625 C 1.976562 -1.21875 2.03125 -1.082031 2.125 -1 C 2.226562 -0.925781 2.347656 -0.890625 2.484375 -0.890625 C 2.546875 -0.890625 2.628906 -0.898438 2.734375 -0.921875 C 2.835938 -0.941406 2.9375 -0.96875 3.03125 -1 C 3.132812 -1.03125 3.207031 -1.0625 3.25 -1.09375 C 3.3125 -1.15625 3.375 -1.171875 3.4375 -1.140625 C 3.507812 -1.109375 3.546875 -1.039062 3.546875 -0.9375 C 3.546875 -0.820312 3.546875 -0.71875 3.546875 -0.625 C 3.546875 -0.539062 3.546875 -0.453125 3.546875 -0.359375 C 3.535156 -0.242188 3.488281 -0.164062 3.40625 -0.125 C 3.320312 -0.0820312 3.207031 -0.046875 3.0625 -0.015625 C 2.914062 0.00390625 2.769531 0.0195312 2.625 0.03125 C 2.476562 0.0507812 2.351562 0.0625 2.25 0.0625 Z M 2.25 0.0625 "/></g></g></g><g fill="#ffffff" fill-opacity="1"><g transform="translate(71.033269, 88.160875)"><g><path d="M 0.75 0.03125 C 0.707031 0.03125 0.644531 0.0234375 0.5625 0.015625 C 0.476562 0.015625 0.40625 0.0078125 0.34375 0 C 0.300781 -0.0078125 0.265625 -0.03125 0.234375 -0.0625 C 0.203125 -0.101562 0.1875 -0.148438 0.1875 -0.203125 C 0.1875 -0.628906 0.1875 -1.003906 0.1875 -1.328125 C 0.1875 -1.660156 0.1875 -1.960938 0.1875 -2.234375 C 0.195312 -2.515625 0.207031 -2.78125 0.21875 -3.03125 C 0.238281 -3.28125 0.253906 -3.539062 0.265625 -3.8125 C 0.285156 -3.925781 0.34375 -3.988281 0.4375 -4 C 0.488281 -4.007812 0.550781 -4.015625 0.625 -4.015625 C 0.695312 -4.023438 0.765625 -4.03125 0.828125 -4.03125 C 0.890625 -4.03125 0.960938 -4.023438 1.046875 -4.015625 C 1.140625 -4.015625 1.207031 -4.007812 1.25 -4 C 1.3125 -3.988281 1.359375 -3.960938 1.390625 -3.921875 C 1.421875 -3.890625 1.425781 -3.851562 1.40625 -3.8125 C 1.382812 -3.71875 1.363281 -3.628906 1.34375 -3.546875 C 1.332031 -3.472656 1.328125 -3.390625 1.328125 -3.296875 C 1.328125 -3.222656 1.34375 -3.179688 1.375 -3.171875 C 1.414062 -3.160156 1.453125 -3.191406 1.484375 -3.265625 C 1.597656 -3.546875 1.765625 -3.75 1.984375 -3.875 C 2.203125 -4 2.445312 -4.0625 2.71875 -4.0625 C 2.832031 -4.0625 2.953125 -4.046875 3.078125 -4.015625 C 3.203125 -3.984375 3.300781 -3.945312 3.375 -3.90625 C 3.476562 -3.851562 3.53125 -3.773438 3.53125 -3.671875 C 3.53125 -3.523438 3.523438 -3.382812 3.515625 -3.25 C 3.515625 -3.125 3.507812 -2.984375 3.5 -2.828125 C 3.5 -2.734375 3.460938 -2.675781 3.390625 -2.65625 C 3.316406 -2.632812 3.253906 -2.65625 3.203125 -2.71875 C 3.066406 -2.832031 2.925781 -2.910156 2.78125 -2.953125 C 2.632812 -2.992188 2.488281 -3.015625 2.34375 -3.015625 C 2.164062 -3.015625 1.992188 -2.960938 1.828125 -2.859375 C 1.671875 -2.753906 1.539062 -2.609375 1.4375 -2.421875 C 1.34375 -2.234375 1.296875 -2.007812 1.296875 -1.75 C 1.296875 -1.5625 1.300781 -1.367188 1.3125 -1.171875 C 1.332031 -0.972656 1.347656 -0.785156 1.359375 -0.609375 C 1.378906 -0.441406 1.390625 -0.304688 1.390625 -0.203125 C 1.390625 -0.140625 1.367188 -0.0859375 1.328125 -0.046875 C 1.296875 -0.015625 1.257812 0 1.21875 0 C 1.164062 0.0078125 1.09375 0.015625 1 0.015625 C 0.914062 0.0234375 0.832031 0.03125 0.75 0.03125 Z M 0.75 0.03125 "/></g></g></g><g fill="#ffffff" fill-opacity="1"><g transform="translate(74.686643, 88.160875)"><g><path d="M 2.1875 0.0625 C 1.800781 0.0625 1.453125 -0.0078125 1.140625 -0.15625 C 0.828125 -0.3125 0.578125 -0.539062 0.390625 -0.84375 C 0.210938 -1.144531 0.125 -1.519531 0.125 -1.96875 C 0.125 -2.414062 0.210938 -2.789062 0.390625 -3.09375 C 0.566406 -3.40625 0.8125 -3.644531 1.125 -3.8125 C 1.4375 -3.976562 1.789062 -4.0625 2.1875 -4.0625 C 2.59375 -4.0625 2.945312 -3.976562 3.25 -3.8125 C 3.550781 -3.644531 3.789062 -3.40625 3.96875 -3.09375 C 4.144531 -2.789062 4.234375 -2.414062 4.234375 -1.96875 C 4.234375 -1.519531 4.144531 -1.144531 3.96875 -0.84375 C 3.789062 -0.539062 3.546875 -0.3125 3.234375 -0.15625 C 2.929688 -0.0078125 2.582031 0.0625 2.1875 0.0625 Z M 2.1875 -0.8125 C 2.476562 -0.8125 2.71875 -0.910156 2.90625 -1.109375 C 3.09375 -1.316406 3.1875 -1.617188 3.1875 -2.015625 C 3.1875 -2.378906 3.09375 -2.664062 2.90625 -2.875 C 2.726562 -3.082031 2.488281 -3.1875 2.1875 -3.1875 C 1.894531 -3.1875 1.65625 -3.082031 1.46875 -2.875 C 1.28125 -2.664062 1.1875 -2.378906 1.1875 -2.015625 C 1.1875 -1.617188 1.28125 -1.316406 1.46875 -1.109375 C 1.664062 -0.910156 1.90625 -0.8125 2.1875 -0.8125 Z M 2.1875 -0.8125 "/></g></g></g><g fill="#ffffff" fill-opacity="1"><g transform="translate(79.061854, 88.160875)"><g><path d="M 0.8125 0.03125 C 0.757812 0.03125 0.6875 0.0234375 0.59375 0.015625 C 0.5 0.015625 0.425781 0.0078125 0.375 0 C 0.257812 -0.0195312 0.203125 -0.0859375 0.203125 -0.203125 C 0.203125 -0.628906 0.203125 -1.070312 0.203125 -1.53125 C 0.210938 -1.988281 0.222656 -2.4375 0.234375 -2.875 C 0.242188 -3.320312 0.253906 -3.738281 0.265625 -4.125 C 0.285156 -4.507812 0.304688 -4.835938 0.328125 -5.109375 C 0.335938 -5.222656 0.394531 -5.285156 0.5 -5.296875 C 0.5625 -5.304688 0.625 -5.3125 0.6875 -5.3125 C 0.757812 -5.320312 0.828125 -5.328125 0.890625 -5.328125 C 0.953125 -5.328125 1.03125 -5.320312 1.125 -5.3125 C 1.21875 -5.3125 1.289062 -5.304688 1.34375 -5.296875 C 1.394531 -5.296875 1.4375 -5.273438 1.46875 -5.234375 C 1.5 -5.191406 1.507812 -5.140625 1.5 -5.078125 C 1.457031 -4.773438 1.421875 -4.414062 1.390625 -4 C 1.367188 -3.582031 1.351562 -3.148438 1.34375 -2.703125 C 1.332031 -2.253906 1.328125 -1.8125 1.328125 -1.375 C 1.335938 -0.945312 1.359375 -0.554688 1.390625 -0.203125 C 1.390625 -0.148438 1.375 -0.101562 1.34375 -0.0625 C 1.3125 -0.0195312 1.269531 0 1.21875 0 C 1.164062 0.0078125 1.097656 0.015625 1.015625 0.015625 C 0.929688 0.0234375 0.863281 0.03125 0.8125 0.03125 Z M 0.8125 0.03125 "/></g></g></g></svg>