<?xml version="1.0" standalone="no"?>
<!DOCTYPE svg PUBLIC "-//W3C//DTD SVG 20010904//EN"
 "http://www.w3.org/TR/2001/REC-SVG-20010904/DTD/svg10.dtd">
<svg version="1.0" xmlns="http://www.w3.org/2000/svg"
 width="132.000000pt" height="132.000000pt" viewBox="0 0 132.000000 132.000000"
 preserveAspectRatio="xMidYMid meet">
<metadata>
Created by potrace 1.14, written by Peter Selinger 2001-2017
</metadata>
<g transform="translate(0.000000,132.000000) scale(0.100000,-0.100000)"
fill="#000000" stroke="none">
<path d="M545 1305 c-167 -30 -289 -104 -391 -236 -101 -131 -148 -271 -146
-430 1 -129 75 -329 121 -329 14 0 6 38 -24 108 -64 152 -65 305 -3 464 63
165 200 298 363 353 73 24 81 26 180 32 73 4 107 1 174 -16 81 -20 195 -75
221 -106 11 -13 9 -15 -14 -15 -25 0 -46 -23 -33 -36 3 -3 36 -6 72 -6 79 -1
85 5 81 79 -3 78 -39 101 -48 31 l-3 -27 -69 44 c-138 87 -314 120 -481 90z"/>
<path d="M569 1065 c-140 -37 -261 -151 -299 -282 -7 -23 -10 -49 -6 -59 6
-16 8 -16 26 1 11 10 20 23 20 30 0 6 14 39 31 73 30 61 96 129 153 159 133
69 310 49 421 -48 44 -39 97 -117 114 -171 7 -20 18 -42 26 -48 27 -22 30 35
4 96 -44 110 -134 196 -245 235 -67 24 -184 30 -245 14z"/>
<path d="M1214 958 c8 -24 21 -60 30 -81 96 -220 17 -527 -177 -689 -199 -165
-488 -191 -702 -63 -78 47 -85 55 -52 55 30 0 48 27 28 40 -15 9 -127 7 -137
-2 -10 -11 -12 -101 -2 -127 8 -22 10 -23 24 -9 8 8 16 24 17 36 1 12 2 22 4
22 1 0 30 -18 65 -40 35 -21 95 -51 133 -66 61 -24 86 -28 200 -31 94 -2 146
2 190 13 223 59 388 215 466 442 16 45 18 80 16 216 -2 152 -4 165 -31 229
-25 59 -55 97 -78 97 -4 0 -1 -19 6 -42z"/>
<path d="M701 735 l-76 -76 -19 26 c-38 53 -106 52 -126 -1 -15 -39 -6 -57 62
-124 86 -86 92 -85 222 45 58 58 107 109 107 115 1 5 2 16 3 23 1 6 -4 24 -11
40 -11 22 -20 27 -50 27 -32 0 -45 -9 -112 -75z"/>
<path d="M265 580 c-14 -44 43 -157 117 -229 207 -205 570 -125 678 149 13 32
19 64 15 78 -6 23 -7 23 -25 7 -10 -9 -22 -30 -25 -45 -14 -64 -88 -158 -158
-201 -126 -78 -292 -71 -419 17 -48 33 -114 123 -130 176 -6 21 -19 45 -29 54
-16 14 -18 14 -24 -6z"/>
</g>
</svg>
