<?xml version="1.0" standalone="no"?>
<!DOCTYPE svg PUBLIC "-//W3C//DTD SVG 20010904//EN"
 "http://www.w3.org/TR/2001/REC-SVG-20010904/DTD/svg10.dtd">
<svg version="1.0" xmlns="http://www.w3.org/2000/svg"
 width="700.000000pt" height="700.000000pt" viewBox="0 0 700.000000 700.000000"
 preserveAspectRatio="xMidYMid meet">
<metadata>
Created by potrace 1.14, written by Peter Selinger 2001-2017
</metadata>
<g transform="translate(0.000000,700.000000) scale(0.100000,-0.100000)"
fill="#000000" stroke="none">
<path d="M3288 6845 c-2 -2 -34 -6 -73 -10 -38 -4 -81 -8 -95 -10 -14 -2 -47
-7 -75 -11 -27 -3 -59 -8 -70 -10 -11 -2 -31 -6 -45 -9 -221 -41 -403 -91
-610 -170 -315 -120 -628 -300 -905 -522 -148 -118 -387 -357 -500 -498 -22
-27 -42 -52 -45 -55 -39 -39 -189 -263 -270 -403 -61 -106 -180 -348 -180
-365 0 -4 -9 -27 -20 -50 -11 -22 -20 -46 -20 -52 0 -6 -7 -24 -15 -39 -26
-51 -112 -345 -131 -451 -3 -14 -7 -32 -9 -40 -3 -8 -7 -33 -11 -55 -3 -22 -7
-42 -9 -45 -2 -3 -6 -37 -10 -75 -4 -39 -9 -72 -10 -75 -2 -3 -6 -44 -10 -90
-4 -47 -8 -103 -11 -125 -5 -50 -5 -343 0 -410 6 -87 17 -206 21 -223 1 -9 6
-44 10 -77 3 -32 8 -62 10 -65 2 -3 6 -21 9 -40 5 -32 18 -101 30 -157 53
-253 206 -645 345 -888 16 -27 38 -66 49 -87 43 -76 190 -286 262 -372 19 -23
55 -67 80 -97 150 -181 449 -445 675 -595 400 -266 860 -451 1291 -520 20 -3
44 -7 53 -9 9 -2 44 -6 76 -10 33 -4 69 -9 80 -11 121 -24 607 -23 755 0 14 3
49 7 79 10 30 4 64 9 75 11 12 2 39 7 61 10 22 3 47 7 55 10 8 2 29 7 45 10
17 3 41 8 55 11 131 26 433 124 558 180 29 13 55 24 58 24 14 0 282 140 377
197 385 231 740 562 1014 943 126 175 304 499 373 680 73 190 146 427 167 540
2 14 10 57 18 95 19 99 25 136 30 192 3 26 7 58 10 71 22 118 22 628 0 743 -3
13 -7 44 -10 69 -17 165 -78 430 -147 635 -311 924 -1032 1691 -1923 2045 -44
17 -87 35 -95 39 -14 7 -186 62 -300 95 -46 13 -188 46 -265 60 -62 12 -133
22 -212 31 -27 3 -64 8 -83 11 -38 6 -557 14 -562 9z"/>
</g>
</svg>
